<svg width="347" height="72" viewBox="0 0 347 72" fill="none" xmlns="http://www.w3.org/2000/svg">
<path d="M2.52252 15H1.24852V6.082H6.91782V7.12668H2.52252V10.1078H6.35726V11.1525H2.52252V15ZM9.23371 8.63V10.0696C9.45029 9.06316 10.151 8.48986 10.9409 8.48986C11.1702 8.48986 11.3486 8.55356 11.5269 8.63V9.8403C11.3231 9.72564 11.081 9.67468 10.8517 9.67468C10.4313 9.67468 9.23371 9.87852 9.23371 12.5921V15H7.99793V8.63H9.23371ZM12.0425 11.815C12.0425 9.98044 13.5458 8.48986 15.3804 8.48986C17.2277 8.48986 18.731 9.99318 18.731 11.815C18.731 13.6496 17.2277 15.1401 15.3804 15.1401C13.5458 15.1401 12.0425 13.6623 12.0425 11.815ZM13.2783 11.8277C13.2783 13.0508 14.221 14.0445 15.3804 14.0445C16.5524 14.0445 17.4952 13.0508 17.4952 11.8277C17.4952 10.592 16.5524 9.5855 15.3804 9.5855C14.221 9.5855 13.2783 10.592 13.2783 11.8277ZM24.5473 15V11.4073C24.5473 10.0569 23.923 9.5855 23.2478 9.5855C22.5853 9.5855 21.4387 10.0314 21.4387 12.0443V15H20.203V8.63H21.4387V9.904C21.7063 8.97398 22.5344 8.48986 23.4771 8.48986C24.0887 8.48986 25.0059 8.6937 25.5028 9.82756C26.0251 8.71918 26.9042 8.48986 27.6686 8.48986C29.1719 8.48986 30.1274 9.35618 30.1274 11.4073V15H28.8916V11.4073C28.8916 10.0569 28.2674 9.5855 27.5922 9.5855C26.9934 9.5855 25.8468 9.95496 25.7831 11.9042V15H24.5473ZM36.8981 9.59824V13.0763C36.8981 13.777 37.2421 14.0572 37.6625 14.0572C38.0575 14.0572 38.4397 13.8279 38.4397 13.3565C38.4397 13.2674 38.4269 13.0253 38.3377 12.8342C38.7072 12.8342 39.0512 12.8342 39.4206 12.8342C39.5353 13.089 39.5353 13.5222 39.5353 13.5222C39.5353 14.4267 38.8856 15.1401 37.6498 15.1401C36.6433 15.1401 35.6623 14.6178 35.6623 12.9871V9.59824H34.6177V8.63H35.6623L35.9426 6.79544H36.8981V8.63H38.9238V9.59824H36.8981ZM45.2803 15V11.4073C45.2803 10.0569 44.6561 9.5855 43.9809 9.5855C43.3184 9.5855 41.9297 10.0314 41.9297 12.0443V15H40.6939V5.78898H41.9297V9.904C42.1973 8.99946 43.0254 8.48986 44.07 8.48986C45.446 8.48986 46.5161 9.35618 46.5161 11.4073V15H45.2803ZM53.581 13.2419L54.2689 13.9553C53.4536 14.8726 52.4216 15.1401 51.4789 15.1401C49.2621 15.1401 47.8862 13.6496 47.8862 11.8405C47.8862 9.98044 49.3385 8.48986 51.3132 8.48986C52.9949 8.48986 54.5619 9.57276 54.5619 11.9297H49.122C49.0837 13.1654 50.0775 14.0445 51.4916 14.0445C52.256 14.0445 52.944 13.7897 53.581 13.2419ZM51.3387 9.57276C50.5871 9.57276 49.657 9.86578 49.2366 10.9742H53.2879C52.944 9.81482 52.0394 9.57276 51.3387 9.57276ZM58.8349 11.8914C58.8349 10.0187 60.0962 8.48986 62.4148 8.48986C62.9882 8.48986 63.8417 8.63 64.6953 9.267L64.1093 10.1078C63.434 9.59824 62.6314 9.5855 62.4658 9.5855C61.0899 9.5855 60.0707 10.5028 60.0707 11.815C60.0707 13.1272 61.0899 14.0445 62.4658 14.0445C62.6314 14.0445 63.434 14.0318 64.1093 13.5222L64.6953 14.363C63.8417 15 62.9882 15.1401 62.4148 15.1401C60.1599 15.1401 58.8349 13.7005 58.8349 11.8914ZM67.2729 8.63V10.0696C67.4895 9.06316 68.1902 8.48986 68.98 8.48986C69.2094 8.48986 69.3877 8.55356 69.5661 8.63V9.8403C69.3622 9.72564 69.1202 9.67468 68.8909 9.67468C68.4704 9.67468 67.2729 9.87852 67.2729 12.5921V15H66.0371V8.63H67.2729ZM75.7764 13.2419L76.4644 13.9553C75.649 14.8726 74.6171 15.1401 73.6743 15.1401C71.4576 15.1401 70.0816 13.6496 70.0816 11.8405C70.0816 9.98044 71.534 8.48986 73.5087 8.48986C75.1904 8.48986 76.7574 9.57276 76.7574 11.9297H71.3174C71.2792 13.1654 72.2729 14.0445 73.6871 14.0445C74.4515 14.0445 75.1394 13.7897 75.7764 13.2419ZM73.5342 9.57276C72.7825 9.57276 71.8525 9.86578 71.4321 10.9742H75.4834C75.1394 9.81482 74.2349 9.57276 73.5342 9.57276ZM77.6712 11.815C77.6712 9.99318 78.9197 8.48986 80.8307 8.48986C81.6843 8.48986 82.5251 8.78288 83.1367 9.6492V8.63H84.3724V15H83.1367V13.9808C82.5251 14.8471 81.6843 15.1401 80.8307 15.1401C78.9197 15.1401 77.6712 13.6368 77.6712 11.815ZM83.1621 11.815C83.1494 10.5283 82.2703 9.5855 80.9836 9.5855C79.6586 9.5855 78.907 10.6047 78.907 11.815C78.907 13.0253 79.6586 14.0445 80.9836 14.0445C82.2703 14.0445 83.1494 13.1017 83.1621 11.815ZM87.8706 9.59824V13.0763C87.8706 13.777 88.2145 14.0572 88.635 14.0572C89.0299 14.0572 89.4121 13.8279 89.4121 13.3565C89.4121 13.2674 89.3994 13.0253 89.3102 12.8342C89.6796 12.8342 90.0236 12.8342 90.3931 12.8342C90.5077 13.089 90.5077 13.5222 90.5077 13.5222C90.5077 14.4267 89.858 15.1401 88.6222 15.1401C87.6158 15.1401 86.6348 14.6178 86.6348 12.9871V9.59824H85.5901V8.63H86.6348L86.9151 6.79544H87.8706V8.63H89.8962V9.59824H87.8706ZM91.1823 11.815C91.1823 9.98044 92.6856 8.48986 94.5201 8.48986C96.3674 8.48986 97.8708 9.99318 97.8708 11.815C97.8708 13.6496 96.3674 15.1401 94.5201 15.1401C92.6856 15.1401 91.1823 13.6623 91.1823 11.815ZM92.418 11.8277C92.418 13.0508 93.3608 14.0445 94.5201 14.0445C95.6922 14.0445 96.635 13.0508 96.635 11.8277C96.635 10.592 95.6922 9.5855 94.5201 9.5855C93.3608 9.5855 92.418 10.592 92.418 11.8277ZM100.579 8.63V10.0696C100.795 9.06316 101.496 8.48986 102.286 8.48986C102.515 8.48986 102.693 8.55356 102.872 8.63V9.8403C102.668 9.72564 102.426 9.67468 102.196 9.67468C101.776 9.67468 100.579 9.87852 100.579 12.5921V15H99.3427V8.63H100.579ZM107.97 10.0059L106.875 10.248C106.671 9.67468 106.276 9.54728 105.881 9.54728C105.308 9.54728 104.938 9.904 104.938 10.3626C104.938 10.7831 105.32 10.9996 105.703 11.127L106.62 11.4328C107.83 11.8023 108.149 12.5539 108.149 13.2291C108.149 14.4394 107.091 15.1401 105.856 15.1401C104.734 15.1401 103.69 14.5668 103.397 13.4712L104.492 13.2037C104.645 13.7133 105.219 14.0827 105.868 14.0827C106.505 14.0827 106.964 13.7133 106.964 13.2164C106.964 12.7832 106.607 12.5667 106.161 12.4138L105.308 12.1208C104.289 11.815 103.741 11.2672 103.741 10.3881C103.741 9.30522 104.582 8.48986 105.843 8.48986C106.735 8.48986 107.614 8.85932 107.97 10.0059ZM112.507 11.815C112.507 9.98044 114.01 8.48986 115.845 8.48986C117.692 8.48986 119.195 9.99318 119.195 11.815C119.195 13.6496 117.692 15.1401 115.845 15.1401C114.01 15.1401 112.507 13.6623 112.507 11.815ZM113.743 11.8277C113.743 13.0508 114.685 14.0445 115.845 14.0445C117.017 14.0445 117.96 13.0508 117.96 11.8277C117.96 10.592 117.017 9.5855 115.845 9.5855C114.685 9.5855 113.743 10.592 113.743 11.8277ZM122.225 7.98026V8.63H123.894V9.59824H122.225V15H120.951V9.59824H119.944V8.63H120.951V8.14588C120.951 6.09474 122.059 5.66158 123.065 5.66158C124.301 5.66158 124.964 6.36228 124.964 7.26682C124.964 7.26682 124.964 7.43244 124.9 7.6108H123.843C123.855 7.52162 123.868 7.4834 123.868 7.39422C123.868 6.88462 123.473 6.74448 123.078 6.74448C122.658 6.74448 122.225 7.02476 122.225 7.98026ZM132.819 14.8853L129.953 7.96752L129.341 15H128.055L128.895 6.082H130.322L133.291 13.1909L136.259 6.082H137.686L138.527 15H137.24L136.629 7.96752L133.762 14.8853H132.819ZM139.791 11.815C139.791 9.98044 141.294 8.48986 143.129 8.48986C144.976 8.48986 146.479 9.99318 146.479 11.815C146.479 13.6496 144.976 15.1401 143.129 15.1401C141.294 15.1401 139.791 13.6623 139.791 11.815ZM141.027 11.8277C141.027 13.0508 141.969 14.0445 143.129 14.0445C144.301 14.0445 145.244 13.0508 145.244 11.8277C145.244 10.592 144.301 9.5855 143.129 9.5855C141.969 9.5855 141.027 10.592 141.027 11.8277ZM151.913 10.0059L150.818 10.248C150.614 9.67468 150.219 9.54728 149.824 9.54728C149.251 9.54728 148.881 9.904 148.881 10.3626C148.881 10.7831 149.264 10.9996 149.646 11.127L150.563 11.4328C151.773 11.8023 152.092 12.5539 152.092 13.2291C152.092 14.4394 151.034 15.1401 149.799 15.1401C148.677 15.1401 147.633 14.5668 147.34 13.4712L148.435 13.2037C148.588 13.7133 149.162 14.0827 149.811 14.0827C150.448 14.0827 150.907 13.7133 150.907 13.2164C150.907 12.7832 150.55 12.5667 150.104 12.4138L149.251 12.1208C148.232 11.815 147.684 11.2672 147.684 10.3881C147.684 9.30522 148.525 8.48986 149.786 8.48986C150.678 8.48986 151.557 8.85932 151.913 10.0059ZM155.116 9.59824V13.0763C155.116 13.777 155.46 14.0572 155.881 14.0572C156.276 14.0572 156.658 13.8279 156.658 13.3565C156.658 13.2674 156.645 13.0253 156.556 12.8342C156.925 12.8342 157.269 12.8342 157.639 12.8342C157.754 13.089 157.754 13.5222 157.754 13.5222C157.754 14.4267 157.104 15.1401 155.868 15.1401C154.862 15.1401 153.881 14.6178 153.881 12.9871V9.59824H152.836V8.63H153.881L154.161 6.79544H155.116V8.63H157.142V9.59824H155.116ZM168.667 10.541C168.667 8.65548 167.418 7.12668 165.38 7.12668H163.813V13.9553H165.38C167.418 13.9553 168.667 12.4265 168.667 10.541ZM169.966 10.541C169.966 12.9998 168.234 15 165.38 15H162.539V6.082H165.38C168.234 6.082 169.966 8.08218 169.966 10.541ZM171.069 11.815C171.069 9.99318 172.317 8.48986 174.228 8.48986C175.082 8.48986 175.923 8.78288 176.534 9.6492V8.63H177.77V15H176.534V13.9808C175.923 14.8471 175.082 15.1401 174.228 15.1401C172.317 15.1401 171.069 13.6368 171.069 11.815ZM176.56 11.815C176.547 10.5283 175.668 9.5855 174.381 9.5855C173.056 9.5855 172.305 10.6047 172.305 11.815C172.305 13.0253 173.056 14.0445 174.381 14.0445C175.668 14.0445 176.547 13.1017 176.56 11.815ZM182.338 13.382L184.147 8.63H185.587L181.676 17.8538H180.478L181.663 14.7834L178.975 8.63H180.389L182.338 13.382ZM190.532 10.0059L189.436 10.248C189.232 9.67468 188.837 9.54728 188.442 9.54728C187.869 9.54728 187.499 9.904 187.499 10.3626C187.499 10.7831 187.882 10.9996 188.264 11.127L189.181 11.4328C190.391 11.8023 190.71 12.5539 190.71 13.2291C190.71 14.4394 189.653 15.1401 188.417 15.1401C187.296 15.1401 186.251 14.5668 185.958 13.4712L187.054 13.2037C187.206 13.7133 187.78 14.0827 188.429 14.0827C189.066 14.0827 189.525 13.7133 189.525 13.2164C189.525 12.7832 189.168 12.5667 188.722 12.4138L187.869 12.1208C186.85 11.815 186.302 11.2672 186.302 10.3881C186.302 9.30522 187.143 8.48986 188.404 8.48986C189.296 8.48986 190.175 8.85932 190.532 10.0059ZM192.167 16.6562L191.925 16.1976C192.677 15.9428 192.919 15.2675 192.919 14.7834C192.308 14.9873 191.964 14.5668 191.951 14.1464C191.938 13.7133 192.231 13.3311 192.843 13.3311C193.556 13.3311 193.722 14.0318 193.722 14.3757C193.722 15.4204 193.187 16.3377 192.167 16.6562ZM200.481 7.98026V8.63H202.15V9.59824H200.481V15H199.207V9.59824H198.201V8.63H199.207V8.14588C199.207 6.09474 200.315 5.66158 201.322 5.66158C202.558 5.66158 203.22 6.36228 203.22 7.26682C203.22 7.26682 203.22 7.43244 203.156 7.6108H202.099C202.112 7.52162 202.124 7.4834 202.124 7.39422C202.124 6.88462 201.73 6.74448 201.335 6.74448C200.914 6.74448 200.481 7.02476 200.481 7.98026ZM208.427 13.2419L209.115 13.9553C208.299 14.8726 207.267 15.1401 206.325 15.1401C204.108 15.1401 202.732 13.6496 202.732 11.8405C202.732 9.98044 204.184 8.48986 206.159 8.48986C207.841 8.48986 209.408 9.57276 209.408 11.9297H203.968C203.929 13.1654 204.923 14.0445 206.337 14.0445C207.102 14.0445 207.79 13.7897 208.427 13.2419ZM206.184 9.57276C205.433 9.57276 204.503 9.86578 204.082 10.9742H208.134C207.79 9.81482 206.885 9.57276 206.184 9.57276ZM210.321 11.815C210.321 9.99318 211.57 8.48986 213.481 8.48986C214.335 8.48986 215.175 8.78288 215.787 9.6492V8.63H217.023V15H215.787V13.9808C215.175 14.8471 214.335 15.1401 213.481 15.1401C211.57 15.1401 210.321 13.6368 210.321 11.815ZM215.812 11.815C215.8 10.5283 214.921 9.5855 213.634 9.5855C212.309 9.5855 211.557 10.6047 211.557 11.815C211.557 13.0253 212.309 14.0445 213.634 14.0445C214.921 14.0445 215.8 13.1017 215.812 11.815ZM220.521 9.59824V13.0763C220.521 13.777 220.865 14.0572 221.285 14.0572C221.68 14.0572 222.062 13.8279 222.062 13.3565C222.062 13.2674 222.05 13.0253 221.96 12.8342C222.33 12.8342 222.674 12.8342 223.043 12.8342C223.158 13.089 223.158 13.5222 223.158 13.5222C223.158 14.4267 222.508 15.1401 221.273 15.1401C220.266 15.1401 219.285 14.6178 219.285 12.9871V9.59824H218.24V8.63H219.285L219.565 6.79544H220.521V8.63H222.547V9.59824H220.521ZM225.451 8.63V12.2227C225.451 13.5731 226.075 14.0445 226.75 14.0445C227.412 14.0445 228.801 13.5986 228.801 11.5857V8.63H230.037V15H228.801V13.726C228.534 14.6305 227.705 15.1401 226.661 15.1401C225.285 15.1401 224.215 14.2738 224.215 12.2227V8.63H225.451ZM233.229 8.63V10.0696C233.445 9.06316 234.146 8.48986 234.936 8.48986C235.165 8.48986 235.344 8.55356 235.522 8.63V9.8403C235.318 9.72564 235.076 9.67468 234.847 9.67468C234.426 9.67468 233.229 9.87852 233.229 12.5921V15H231.993V8.63H233.229ZM241.732 13.2419L242.42 13.9553C241.605 14.8726 240.573 15.1401 239.63 15.1401C237.413 15.1401 236.038 13.6496 236.038 11.8405C236.038 9.98044 237.49 8.48986 239.465 8.48986C241.146 8.48986 242.713 9.57276 242.713 11.9297H237.273C237.235 13.1654 238.229 14.0445 239.643 14.0445C240.407 14.0445 241.095 13.7897 241.732 13.2419ZM239.49 9.57276C238.738 9.57276 237.808 9.86578 237.388 10.9742H241.439C241.095 9.81482 240.191 9.57276 239.49 9.57276ZM243.64 11.815C243.64 9.99318 244.888 8.48986 246.799 8.48986C247.653 8.48986 248.494 8.78288 249.105 9.6492V5.78898H250.341V15H249.105V13.9808C248.494 14.8471 247.653 15.1401 246.799 15.1401C244.888 15.1401 243.64 13.6368 243.64 11.815ZM249.131 11.815C249.118 10.5283 248.239 9.5855 246.952 9.5855C245.627 9.5855 244.876 10.6047 244.876 11.815C244.876 13.0253 245.627 14.0445 246.952 14.0445C248.239 14.0445 249.118 13.1017 249.131 11.815ZM256.931 15H255.695V8.63H256.931V15ZM255.453 6.57886C255.453 7.06298 255.822 7.43244 256.306 7.43244C256.79 7.43244 257.173 7.06298 257.173 6.57886C257.173 6.09474 256.79 5.71254 256.306 5.71254C255.822 5.71254 255.453 6.09474 255.453 6.57886ZM263.515 15V11.4073C263.515 10.0569 262.891 9.5855 262.216 9.5855C261.553 9.5855 260.164 10.0314 260.164 12.0443V15H258.929V8.63H260.164V9.904C260.432 8.99946 261.26 8.48986 262.305 8.48986C263.681 8.48986 264.751 9.35618 264.751 11.4073V15H263.515ZM266.49 14.2101C266.49 13.6878 266.898 13.2674 267.42 13.2674C267.942 13.2674 268.363 13.6878 268.363 14.2101C268.363 14.7325 267.942 15.1401 267.42 15.1401C266.898 15.1401 266.49 14.7325 266.49 14.2101ZM266.49 9.43262C266.49 8.91028 266.898 8.48986 267.42 8.48986C267.942 8.48986 268.363 8.91028 268.363 9.43262C268.363 9.95496 267.942 10.3626 267.42 10.3626C266.898 10.3626 266.49 9.95496 266.49 9.43262Z" fill="white"/>
<path fill-rule="evenodd" clip-rule="evenodd" d="M30.1598 50.4503C30.5901 50.4503 31.0203 50.4504 31.4505 50.4501C31.5388 50.4501 31.5439 50.4439 31.5235 50.3608C31.4093 49.8959 31.2341 49.4556 30.9948 49.0409C30.0484 47.4016 28.2418 46.4111 26.2955 46.5543C25.6942 46.5985 25.1185 46.7397 24.5718 46.9918C22.4097 47.9891 21.2441 50.3282 21.7747 52.6904C22.3793 55.3813 25.0448 57.0653 27.7391 56.4726C29.5977 56.0637 31.0617 54.6366 31.5193 52.7876C31.5453 52.6826 31.5453 52.6823 31.4361 52.6823C30.5915 52.6822 29.7468 52.6835 28.9021 52.6804C28.8172 52.6801 28.771 52.7074 28.7284 52.7813C28.2137 53.6744 27.1662 54.1416 26.1719 53.9256C24.8558 53.6398 24.0364 52.3893 24.3103 51.0642C24.5759 49.7799 25.7981 48.9699 27.0612 49.1886C27.8045 49.3173 28.3656 49.7214 28.7466 50.3732C28.7809 50.4319 28.8193 50.4519 28.8849 50.4515C29.3099 50.4491 29.7348 50.4503 30.1598 50.4503ZM10.5268 53.9119C10.5268 53.1373 10.5286 52.3626 10.526 51.588C10.5247 51.18 10.4807 50.7764 10.3849 50.3789C9.7822 47.8788 7.39383 46.2106 4.77129 46.5947C3.78182 46.7396 2.90231 47.1413 2.16825 47.8228C0.816463 49.0779 0.294271 50.6363 0.586149 52.451C0.779334 53.6521 1.36743 54.6525 2.30636 55.4255C3.3998 56.3256 4.6572 56.7288 6.07098 56.5369C6.80281 56.4376 7.39629 56.0673 7.83508 55.4631C7.84928 55.4435 7.85678 55.4038 7.88714 55.4138C7.91528 55.4231 7.90411 55.4602 7.90417 55.4854C7.90492 55.7762 7.90454 56.067 7.90479 56.3578C7.90489 56.4776 7.9063 56.4789 8.02266 56.479C8.81971 56.479 9.61676 56.479 10.4138 56.479C10.5265 56.4789 10.5267 56.4786 10.5267 56.3626C10.5268 55.5457 10.5268 54.7288 10.5268 53.9119ZM13.8277 47.7244L13.8054 47.7185C13.8054 47.682 13.8054 47.6456 13.8054 47.6091C13.8054 46.131 13.8054 44.6529 13.8053 43.1748C13.8053 43.0739 13.8014 43.0694 13.705 43.0694C12.8999 43.0692 12.0948 43.0692 11.2897 43.0694C11.1898 43.0694 11.1845 43.0742 11.1845 43.1711C11.1846 46.0058 11.185 48.8403 11.1853 51.675C11.1853 51.9613 11.2178 52.2446 11.2718 52.5251C11.7012 54.7551 13.5882 56.4777 15.9803 56.5876C16.4893 56.611 16.9922 56.5555 17.485 56.4233C19.965 55.7579 21.548 53.3389 21.1333 50.7534C20.9307 49.4903 20.3277 48.444 19.3299 47.6447C18.2725 46.7977 17.0612 46.4249 15.709 46.5772C15.0806 46.648 14.5421 46.9289 14.0999 47.3871C13.9992 47.4914 13.913 47.6074 13.8277 47.7244ZM15.3161 35.5096H16.7099C16.8253 35.5181 16.9407 35.5286 17.0562 35.5345C17.5093 35.5576 17.9592 35.6108 18.4078 35.6767C19.2811 35.8048 20.1379 36.004 20.9763 36.2795C23.8292 37.2169 26.2333 38.8295 28.1899 41.1092C29.2438 42.3372 30.0859 43.6994 30.7242 45.1871C31.2972 46.5225 31.6797 47.9107 31.8761 49.3513C31.9697 50.038 32.0178 50.7276 32.0275 51.4198C32.0345 51.9139 32.0104 52.4073 31.9704 52.9002C31.9252 53.4586 31.8508 54.0125 31.7488 54.5632C31.5026 55.8926 31.0941 57.1702 30.5214 58.3939C29.5996 60.3633 28.3317 62.0766 26.7175 63.5321C25.6659 64.4805 24.5084 65.2746 23.2456 65.9132C21.6348 66.7278 19.9341 67.2521 18.1447 67.4886C17.5822 67.5629 17.0176 67.6102 16.451 67.6246C15.7227 67.6431 14.9958 67.6149 14.2708 67.5354C13.6937 67.4721 13.1213 67.3822 12.5547 67.2576C11.0505 66.9266 9.62194 66.3922 8.27307 65.646C6.50603 64.6686 4.97636 63.4029 3.68593 61.8485C2.56778 60.5016 1.69267 59.0106 1.06413 57.3755C0.470358 55.8308 0.12186 54.2324 0.0249108 52.5795C0.0181285 52.4637 0.00836699 52.3481 0 52.2324C0 51.7881 0 51.3439 0 50.8996C0.0136122 50.7049 0.0277156 50.5103 0.0407415 50.3156C0.0772045 49.7699 0.149718 49.229 0.245305 48.6907C0.505125 47.2277 0.960904 45.8284 1.61144 44.4934C2.25062 43.1816 3.05458 41.9799 4.02165 40.8874C4.94785 39.8411 5.99259 38.9318 7.15585 38.1593C8.24285 37.4375 9.40052 36.8567 10.6304 36.421C12.0331 35.9241 13.4764 35.6261 14.9618 35.5349C15.08 35.5276 15.198 35.5181 15.3161 35.5096Z" fill="white"/>
<path fill-rule="evenodd" clip-rule="evenodd" d="M13.7906 51.5603C13.7921 50.2306 14.8688 49.1465 16.1932 49.1524C17.5309 49.1583 18.5962 50.2183 18.5938 51.5685C18.5913 52.9117 17.5333 53.9723 16.193 53.9762C14.8604 53.98 13.7892 52.8946 13.7906 51.5603Z" fill="white"/>
<path fill-rule="evenodd" clip-rule="evenodd" d="M7.91152 51.567C7.92528 52.8233 6.92108 53.9748 5.51541 53.9742C4.10719 53.9736 3.10378 52.8259 3.11296 51.5457C3.12244 50.2241 4.20018 49.1463 5.52081 49.1512C6.84949 49.1561 7.91331 50.2311 7.91152 51.567Z" fill="white"/>
<path d="M72.7734 53.3407C70.8702 53.3407 69.3273 51.8012 69.3273 49.9022C69.3273 48.0032 70.8702 46.4635 72.7734 46.4635C73.4684 46.4635 74.1155 46.6689 74.6569 47.0222L84.0448 53.3407H72.7734ZM73.7258 45.6029C72.1315 44.569 71.6783 42.4405 72.7137 40.8485C73.7491 39.2567 75.8809 38.8041 77.4751 39.8379C78.036 40.2003 78.4786 40.7187 78.7483 41.3293L83.5459 52.2544L73.7258 45.6029ZM98.611 53.344C100.519 53.344 102.065 51.8031 102.065 49.902C102.065 48.0009 100.519 46.46 98.611 46.46C97.9146 46.46 97.2661 46.6655 96.7234 47.0192L87.3139 53.3442L98.611 53.344ZM97.6587 45.6027C99.2565 44.568 99.7108 42.4372 98.6731 40.8438C97.6355 39.2504 95.499 38.7975 93.9012 39.8323C93.3391 40.1949 92.8955 40.7138 92.6251 41.3252L87.8166 52.2607L97.6587 45.6027ZM87.0615 39.1331C86.8155 39.3235 86.1411 39.427 86.2874 40.6265L87.744 50.8035L92.602 39.71C93.3786 37.9727 92.5941 35.9374 90.8503 35.164C89.1063 34.3905 87.0628 35.1717 86.2863 36.909C86.0346 37.47 85.9388 38.0884 86.0092 38.6992L86.9247 38.6976C87.4435 38.7233 87.7167 38.8611 87.0615 39.1331ZM78.7799 39.7128C78.0051 37.9771 78.7878 35.9435 80.5281 35.1708C82.2685 34.3982 84.3076 35.1787 85.0824 36.9144C85.3558 37.5239 85.4445 38.2001 85.3376 38.8593L83.6278 50.7965L78.7799 39.7128ZM99.8734 66.6204C99.3153 66.8473 98.4857 67.0772 97.7168 67.0772C94.2024 67.0772 91.3531 64.3818 91.3531 61.0571C91.3531 57.7322 94.2024 55.0369 97.7168 55.0369C98.4731 55.0369 99.3026 55.221 99.8734 55.4825V57.7841C99.2331 57.3632 98.4832 57.1395 97.7168 57.1406C95.5473 57.1406 93.7882 58.8939 93.7882 61.0569C93.7882 63.2197 95.5473 64.973 97.7168 64.973C98.5093 64.973 99.2562 64.7391 99.8734 64.3365V66.6204ZM78.729 55.4302H81.0653V66.933L73.8731 60.3713V66.6813H71.5369V55.1815L78.729 61.7432V55.4302ZM88.894 60.6688C89.6072 60.1409 90.2283 59.6371 90.2225 58.3083C90.2146 56.5595 88.7983 55.4194 87.0416 55.4194H82.4057V66.6923H87.6056C89.4473 66.6923 90.8486 65.2966 90.8486 63.4625C90.8486 61.6287 89.3311 60.8282 88.894 60.6688ZM84.7545 57.1236L86.4911 57.1238C87.3041 57.1238 87.9631 57.78 87.9631 58.5896C87.9631 59.399 87.3041 60.0554 86.4911 60.0554H84.7545V57.1236ZM86.8687 65.0001H84.7549V61.7395L86.8689 61.7299C87.7753 61.7299 88.5101 62.462 88.5101 63.3651C88.5101 64.2682 87.7751 65.0001 86.8687 65.0001Z" fill="white"/>
<path d="M139.243 44.8856H142.374L144.197 49.3525L146.044 44.8856H149.093L144.502 55.4602H141.435L142.691 52.6581L139.243 44.8856Z" fill="white"/>
<path d="M152.269 44.7077C149.916 44.7077 148.429 46.7282 148.429 48.7403C148.429 51.0045 150.059 52.7996 152.224 52.7996C153.839 52.7996 154.447 51.8575 154.447 51.8575V52.5914H157.178V44.8856H154.447V45.5861C154.447 45.5861 153.768 44.7077 152.269 44.7077ZM152.85 47.1841C153.935 47.1841 154.495 48.0066 154.495 48.7488C154.495 49.548 153.895 50.3323 152.85 50.3323C151.983 50.3323 151.2 49.6541 151.2 48.7828C151.2 47.8991 151.83 47.1841 152.85 47.1841Z" fill="white"/>
<path d="M158.119 52.5914V41.483H160.975V45.6128C160.975 45.6128 161.654 44.7087 163.074 44.7087C164.813 44.7087 165.831 45.9489 165.831 47.721V52.5914H162.995V48.3882C162.995 47.7885 162.697 47.2091 162.021 47.2091C161.334 47.2091 160.975 47.7972 160.975 48.3882V52.5914H158.119Z" fill="white"/>
<path d="M170.701 44.7086C168.007 44.7086 166.403 46.6705 166.403 48.7724C166.403 51.1644 168.345 52.7996 170.711 52.7996C173.004 52.7996 175.011 51.2386 175.011 48.8125C175.011 46.1579 172.91 44.7086 170.701 44.7086ZM170.726 47.2067C171.678 47.2067 172.337 47.9658 172.337 48.7752C172.337 49.4656 171.723 50.3172 170.726 50.3172C169.813 50.3172 169.128 49.6157 169.128 48.7677C169.128 47.9508 169.698 47.2067 170.726 47.2067Z" fill="white"/>
<path d="M179.77 44.7086C177.076 44.7086 175.471 46.6705 175.471 48.7724C175.471 51.1644 177.414 52.7996 179.78 52.7996C182.073 52.7996 184.08 51.2386 184.08 48.8125C184.08 46.1579 181.979 44.7086 179.77 44.7086ZM179.795 47.2067C180.747 47.2067 181.405 47.9658 181.405 48.7752C181.405 49.4656 180.792 50.3172 179.795 50.3172C178.882 50.3172 178.197 49.6157 178.197 48.7677C178.197 47.9508 178.767 47.2067 179.795 47.2067Z" fill="white"/>
<path d="M186.334 52.755C187.381 52.755 188.23 51.9418 188.23 50.9386C188.23 49.9354 187.381 49.1222 186.334 49.1222C185.286 49.1222 184.437 49.9354 184.437 50.9386C184.437 51.9418 185.286 52.755 186.334 52.755Z" fill="white"/>
<path d="M188.854 48.4549H185.439L188.47 41.483H191.871L188.854 48.4549Z" fill="white"/>
<path d="M162.026 55.5403C161.715 55.6499 161.552 55.7438 161.301 55.9733L161.094 56.156V55.8846V55.6133H160.032H158.969V58.3786V61.1439H160.032H161.094V59.563C161.094 58.6865 161.116 57.9038 161.149 57.7995C161.307 57.2516 162.107 57.1108 162.413 57.5856C162.538 57.7734 162.538 57.8047 162.554 59.4587L162.571 61.1439H163.595C164.614 61.1439 164.624 61.1439 164.657 61.0291C164.706 60.8413 164.695 57.7734 164.635 57.2673C164.554 56.4847 164.178 55.9212 163.557 55.629C163.17 55.4464 162.413 55.4046 162.026 55.5403Z" fill="white"/>
<path d="M167.523 55.5403C166.526 55.7907 165.747 56.4795 165.409 57.4082C165.158 58.0969 165.235 59.1717 165.583 59.8291C165.758 60.163 166.177 60.6013 166.526 60.81C167.615 61.4778 169.31 61.4361 170.372 60.7109C170.672 60.5022 171.064 60.0691 171.064 59.9387C171.064 59.9178 170.933 59.85 170.781 59.7978C170.623 59.7404 170.263 59.61 169.985 59.5056C169.702 59.4013 169.43 59.3178 169.375 59.3178C169.321 59.3178 169.201 59.3752 169.114 59.4482C169.026 59.5161 168.885 59.5995 168.798 59.6308C168.574 59.7143 168.046 59.7039 167.861 59.61C167.588 59.4743 167.229 59.01 167.321 58.916C167.338 58.9004 168.215 58.8847 169.277 58.8847C170.334 58.8795 171.233 58.8534 171.276 58.8273C171.369 58.77 171.326 57.9821 171.2 57.523C170.933 56.5368 170.154 55.796 169.125 55.5403C168.71 55.4359 167.926 55.4359 167.523 55.5403ZM168.776 57.0847C169.016 57.2047 169.174 57.3717 169.233 57.5751C169.266 57.6691 169.239 57.6899 169.065 57.7212C168.798 57.763 168.117 57.763 167.692 57.7212C167.305 57.6795 167.267 57.6064 167.506 57.3299C167.817 56.9803 168.345 56.876 168.776 57.0847Z" fill="white"/>
<path d="M182.303 55.5559C181.41 55.7907 180.947 56.182 180.729 56.8968C180.494 57.6742 180.865 58.4308 181.66 58.7751C181.807 58.843 182.287 58.9891 182.717 59.0986C183.556 59.323 183.665 59.3856 183.54 59.5786C183.502 59.6412 183.371 59.6569 182.93 59.6517C182.418 59.6517 182.32 59.6308 181.824 59.4534C181.524 59.3438 181.241 59.2447 181.192 59.2343C181.132 59.2134 181.023 59.3752 180.772 59.876C180.587 60.2465 180.435 60.5752 180.435 60.6065C180.435 60.7161 181.383 61.0708 182.042 61.2013C182.472 61.29 183.545 61.2848 183.921 61.2013C184.951 60.9613 185.572 60.3613 185.648 59.5317C185.697 59.0517 185.556 58.6708 185.207 58.3473C184.853 58.0186 184.531 57.8725 183.534 57.5803C182.919 57.4029 182.745 57.3351 182.728 57.2568C182.668 56.949 183.349 56.9386 184.27 57.2307C184.624 57.3455 184.929 57.4342 184.94 57.4238C184.967 57.3977 185.556 56.0829 185.556 56.0516C185.556 55.9994 184.973 55.7751 184.493 55.6394C183.818 55.4463 182.87 55.4098 182.303 55.5559Z" fill="white"/>
<path d="M171.173 55.6603C171.173 55.749 173.08 61.0604 173.123 61.1022C173.151 61.1283 173.559 61.1387 174.039 61.1335L174.905 61.1178L175.395 59.6934C175.662 58.916 175.896 58.2743 175.913 58.2743C175.929 58.2743 176.163 58.916 176.436 59.6987L176.931 61.1178L177.825 61.1335L178.724 61.1439L178.904 60.6639C179.002 60.3978 179.432 59.1926 179.863 57.9873C180.293 56.7821 180.658 55.7542 180.68 55.702C180.718 55.6186 180.647 55.6133 179.65 55.6133C179.062 55.6133 178.582 55.6186 178.582 55.629C178.582 55.7646 177.694 58.4621 177.672 58.3995C177.667 58.3734 177.454 57.7421 177.198 56.996L176.741 55.6394L175.945 55.6238L175.155 55.6081L174.681 57.0012C174.425 57.763 174.197 58.3682 174.169 58.3473C174.142 58.3108 173.483 56.2864 173.314 55.702C173.287 55.6238 173.189 55.6133 172.23 55.6133C171.603 55.6133 171.173 55.6342 171.173 55.6603Z" fill="white"/>
<path d="M318.823 31.0001C315.039 31.0001 311.973 34.0767 311.973 37.8739C311.973 40.2831 313.493 42.0199 315.081 43.6272L321.291 49.5195C321.617 49.8282 322.152 49.5965 322.152 49.1471V44.5565C322.152 43.2283 323.224 42.1512 324.547 42.149C325.869 42.1512 326.942 43.2283 326.942 44.5565V49.1471C326.942 49.5965 327.477 49.8282 327.802 49.5195L334.012 43.6272C335.6 42.0199 337.121 40.283 337.121 37.8739C337.121 34.0769 334.056 31.0004 330.272 31.0001C327.897 31.0001 325.775 32.2626 324.547 34.1064C323.319 32.2626 321.197 31.0001 318.823 31.0001ZM317.185 33.0978C317.338 33.1029 317.484 33.1819 317.571 33.3213C317.711 33.5435 317.644 33.8379 317.421 33.9778C316.358 34.647 315.525 36.2153 315.525 37.548V37.5713C315.525 39.2129 316.455 40.872 318.288 42.502C318.485 42.6768 318.503 42.9779 318.329 43.1746C318.235 43.281 318.104 43.3345 317.974 43.3345C317.862 43.3345 317.749 43.2956 317.659 43.2154C315.614 41.396 314.576 39.4973 314.576 37.5713V37.548C314.576 35.893 315.583 34.0108 316.917 33.1704C317 33.1182 317.094 33.0947 317.185 33.0978ZM331.909 33.0978C332 33.0947 332.093 33.1182 332.177 33.1704C333.511 34.0108 334.517 35.893 334.517 37.548V37.5713C334.517 39.4973 333.48 41.396 331.435 43.2154C331.345 43.2956 331.232 43.3345 331.12 43.3345C330.99 43.3345 330.859 43.281 330.765 43.1746C330.591 42.9779 330.609 42.6768 330.805 42.502C332.639 40.872 333.568 39.2129 333.568 37.5713V37.548C333.568 36.2153 332.735 34.6465 331.672 33.9773C331.45 33.8374 331.383 33.5435 331.522 33.3213C331.609 33.1819 331.756 33.1029 331.909 33.0978ZM320.643 34.3156C320.828 34.3 321.011 34.394 321.103 34.5684C321.225 34.8013 321.136 35.089 320.904 35.2117C319.953 35.7137 319.361 36.6936 319.359 37.77C319.362 38.9412 320.101 40.1414 321.2 40.7591C321.429 40.8871 321.51 41.1776 321.382 41.4071C321.295 41.5628 321.134 41.6509 320.968 41.6509C320.889 41.6509 320.809 41.6315 320.736 41.5902C319.349 40.811 318.416 39.2803 318.41 37.7776V37.7634C318.415 36.3342 319.2 35.0347 320.462 34.3687C320.52 34.3381 320.582 34.3209 320.643 34.3156ZM328.45 34.3156C328.512 34.3209 328.574 34.3381 328.631 34.3687C329.893 35.0347 330.678 36.3342 330.684 37.7634V37.7776C330.678 39.2803 329.744 40.811 328.358 41.5902C328.284 41.6315 328.205 41.6509 328.126 41.6509C327.96 41.6509 327.798 41.5628 327.711 41.4071C327.583 41.1776 327.665 40.8871 327.894 40.7591C328.993 40.1414 329.731 38.9412 329.734 37.77C329.732 36.6936 329.141 35.7137 328.19 35.2117C327.957 35.089 327.868 34.8013 327.99 34.5684C328.082 34.394 328.266 34.3 328.45 34.3156ZM324.547 36.0561C325.684 36.0568 326.606 36.9821 326.606 38.1234C326.606 39.2647 325.684 40.1901 324.547 40.1908C323.41 40.1901 322.488 39.2647 322.488 38.1234C322.488 36.9821 323.41 36.0568 324.547 36.0561Z" fill="white"/>
<path d="M338.623 63.618C336.295 63.618 334.71 65.4731 334.71 67.592V67.6132C334.71 69.7314 336.271 71.5644 338.601 71.5644C340.93 71.5644 342.517 69.7095 342.517 67.592V67.5697C342.517 65.451 340.954 63.618 338.623 63.618ZM317.927 63.6622C317.651 63.6622 317.488 63.8048 317.38 64.0469L314.272 70.8622C314.229 70.9502 314.219 71.0271 314.219 71.0925C314.219 71.312 314.393 71.4877 314.611 71.4877C314.809 71.4877 314.952 71.3781 315.027 71.1911L315.826 69.4023H320.025L320.823 71.1692C320.901 71.3448 321.041 71.4877 321.249 71.4877C321.479 71.4877 321.666 71.3004 321.666 71.0706C321.666 71.0046 321.644 70.9283 321.612 70.8513L318.505 64.0469C318.408 63.8048 318.231 63.6622 317.97 63.6622H317.927ZM332.37 63.695C332.14 63.695 331.944 63.8932 331.944 64.1341V71.0483C331.944 71.2897 332.14 71.4877 332.37 71.4877C332.609 71.4877 332.805 71.2897 332.805 71.0483V64.1341C332.805 63.8932 332.609 63.695 332.37 63.695ZM307.264 63.7499C307.034 63.7499 306.838 63.9476 306.838 64.1892V71.0483C306.838 71.2897 307.034 71.4877 307.264 71.4877C307.506 71.4877 307.702 71.2897 307.702 71.0483V68.4472H309.899L312.053 71.2569C312.152 71.3888 312.283 71.4877 312.46 71.4877C312.677 71.4877 312.895 71.2897 312.895 71.0592C312.895 70.9387 312.842 70.8406 312.755 70.7413L310.853 68.283C312.043 68.0521 312.895 67.3173 312.895 66.0548V66.0332C312.895 65.4292 312.677 64.8912 312.305 64.5184C311.825 64.0355 311.07 63.7499 310.129 63.7499H307.264ZM323.742 63.7499C323.512 63.7499 323.316 63.9476 323.316 64.1892V70.9936C323.316 71.2353 323.512 71.4325 323.742 71.4325H325.973C328.379 71.4325 330.042 69.753 330.042 67.592V67.5697C330.042 65.4073 328.379 63.7499 325.973 63.7499H323.742ZM338.601 64.4197C340.351 64.4197 341.619 65.8462 341.619 67.592V67.6132C341.619 69.3585 340.373 70.7636 338.623 70.7636C336.874 70.7636 335.605 69.3367 335.605 67.592V67.5697C335.605 65.8251 336.852 64.4197 338.601 64.4197ZM307.702 64.5516H310.064C311.3 64.5516 312.021 65.1217 312.021 66.0662V66.0881C312.021 67.0752 311.201 67.6683 310.054 67.6683H307.702V64.5516ZM324.18 64.5516H325.973C327.907 64.5516 329.144 65.8902 329.144 67.592V67.6132C329.144 69.3151 327.907 70.6322 325.973 70.6322H324.18V64.5516ZM317.927 64.683L319.686 68.6124H316.165L317.927 64.683Z" fill="white"/>
<path d="M308.053 52.8264C307.394 52.8264 306.859 53.3627 306.859 54.0247C306.859 54.6867 307.394 55.2234 308.053 55.2234C308.713 55.2234 309.248 54.6867 309.248 54.0247C309.248 53.3627 308.713 52.8264 308.053 52.8264ZM310.26 53.4256V61.7463H312.559V58.5849H315.506V61.7463H317.803V53.4256L315.506 53.4255V56.5403H312.559V53.4255L310.26 53.4256ZM338.18 53.6874V55.316H337.425V57.1342H338.18V59.7501C338.18 61.2822 338.989 61.8777 340.337 61.8777C340.966 61.8777 341.498 61.7342 341.9 61.508V59.7377C341.629 59.8681 341.343 59.9512 341.048 59.9512C340.634 59.9512 340.431 59.7615 340.431 59.3097V57.1342H341.924V55.316H340.431V53.6874H338.18ZM321.699 55.1736C319.805 55.1736 318.466 56.6591 318.466 58.5371V58.5611C318.466 60.5579 319.887 61.9008 321.9 61.9008C323.181 61.9008 324.069 61.3779 324.686 60.5931L323.442 59.5589C322.98 60.0112 322.554 60.214 322.019 60.214C321.322 60.214 320.811 59.8567 320.635 59.1552H324.921C324.933 59 324.933 58.8339 324.933 58.6916C324.933 56.8014 323.914 55.1736 321.699 55.1736ZM328.197 55.1746C326.917 55.1746 326.029 55.6978 325.412 56.4825L326.656 57.5167C327.118 57.0645 327.544 56.8614 328.079 56.8614C328.769 56.8614 329.274 57.2114 329.456 57.8976L329.458 57.9469L327.977 57.953C326.136 57.9772 325.17 58.6658 325.17 59.9706C325.17 61.227 326.061 61.9008 327.597 61.9008C328.43 61.9008 329.069 61.5729 329.497 61.1262V61.7463H331.627V58.6002C331.629 58.5791 331.629 58.5602 331.629 58.5386V58.5148C331.629 56.5178 330.209 55.1746 328.197 55.1746ZM336.581 55.2069C335.637 55.2339 335.095 55.7864 334.751 56.611V55.316H332.5V61.7463H334.751V59.7496C334.751 58.2634 335.414 57.5864 336.586 57.5864H336.774V55.2089C336.709 55.2059 336.644 55.205 336.581 55.2069ZM308.011 55.7874C307.363 55.7874 306.838 56.3154 306.838 56.9669V61.7463H309.27V56.9669C309.27 56.3154 308.745 55.7874 308.094 55.7874H308.011ZM321.712 56.8374C322.326 56.8374 322.825 57.2838 322.825 57.9712H320.598C320.652 57.2964 321.119 56.8374 321.712 56.8374ZM328.214 59.1513H329.499V59.2215C329.49 59.4858 329.383 60.4141 328.27 60.4622C327.687 60.4872 327.341 60.1501 327.341 59.7452C327.341 59.3539 327.651 59.1513 328.214 59.1513Z" fill="white"/>
<path d="M233.806 46.3523V48.7747H238.885V53.8399H233.806V59.8407H228.591V41.2596H239.677L240.032 46.3523H233.806Z" fill="white"/>
<path d="M254.921 44.1158C256.651 45.8963 257.517 48.0456 257.517 50.5633C257.517 53.0992 256.651 55.2573 254.921 57.038C253.191 58.8184 251.104 59.7086 248.66 59.7086C246.198 59.7086 244.101 58.8184 242.371 57.038C240.641 55.2574 239.776 53.0992 239.776 50.5633C239.776 48.0455 240.641 45.8963 242.371 44.1158C244.101 42.3353 246.198 41.4451 248.66 41.4451C251.103 41.4451 253.191 42.3353 254.921 44.1158ZM247.161 54.2861C247.161 54.7001 247.313 55.0596 247.616 55.3653C247.919 55.6713 248.285 55.8239 248.713 55.8239C249.141 55.8239 249.503 55.6713 249.797 55.3653C250.091 55.0596 250.238 54.7001 250.238 54.2861V46.7596C250.238 46.328 250.091 45.9595 249.797 45.6535C249.503 45.348 249.141 45.1949 248.713 45.1949C248.285 45.1949 247.919 45.348 247.616 45.6535C247.312 45.9595 247.161 46.328 247.161 46.7596V54.2861Z" fill="white"/>
<path d="M265.654 59.896L263.032 55.1886L260.493 59.896H254.759L260.22 50.2612L255.059 41.2596H260.957L263.114 45.2787L265.299 41.2596H271.006L265.954 50.2061L271.524 59.8959H265.654V59.896Z" fill="white"/>
</svg>
