<svg width="193" height="52" viewBox="0 0 193 52" fill="none" xmlns="http://www.w3.org/2000/svg">
<path d="M4 12.8L11.8264 14.5495C17.1879 15.7479 21 20.5062 21 26V26C21 31.4939 17.1879 36.2522 11.8264 37.4506L4 39.2001" stroke="#2A8BA8" stroke-width="6"/>
<path fill-rule="evenodd" clip-rule="evenodd" d="M11.1719 17.4772L3.34546 15.7278L4.65434 9.87231L12.4807 11.6217C19.2131 13.1266 23.9999 19.1015 23.9999 26.0001C23.9999 32.8986 19.2131 38.8735 12.4807 40.3784L4.65434 42.1278L3.34546 36.2723L11.1719 34.5229C15.1625 33.6309 17.9999 30.0892 17.9999 26.0001C17.9999 21.9109 15.1625 18.3693 11.1719 17.4772Z" fill="white"/>
<path fill-rule="evenodd" clip-rule="evenodd" d="M48 5H0V0H48V5Z" fill="url(#paint0_linear_9404_44026)"/>
<path fill-rule="evenodd" clip-rule="evenodd" d="M48 52H0V47H48V52Z" fill="url(#paint1_linear_9404_44026)"/>
<path fill-rule="evenodd" clip-rule="evenodd" d="M36.8281 17.4772L44.6545 15.7278L43.3457 9.87231L35.5193 11.6217C28.7869 13.1266 24.0001 19.1015 24.0001 26.0001C24.0001 32.8986 28.7869 38.8735 35.5193 40.3784L43.3457 42.1278L44.6545 36.2723L36.8281 34.5229C32.8375 33.6309 30.0001 30.0892 30.0001 26.0001C30.0001 21.9109 32.8375 18.3693 36.8281 17.4772Z" fill="white"/>
<g clip-path="url(#clip0_9404_44026)">
<path d="M157.874 24.9807C157.874 23.6818 157.87 22.3829 157.874 21.084C157.88 19.0563 159.442 17.3355 161.502 17.063C162.445 16.9381 163.366 16.983 164.249 17.3448C165.983 18.0538 166.861 19.369 166.894 21.1703C166.939 23.7191 166.922 26.2691 166.9 28.8185C166.88 30.9956 165.373 32.63 163.132 32.9305C161.516 33.147 160.071 32.7811 158.929 31.5826C158.239 30.8596 157.888 29.9826 157.877 28.9947C157.862 27.6573 157.874 26.3193 157.874 24.9819V24.9807ZM160.65 24.9824C160.65 26.2621 160.647 27.5412 160.652 28.8208C160.654 29.4889 160.947 30.0106 161.563 30.307C162.185 30.6069 162.816 30.5696 163.4 30.1862C163.95 29.8262 164.123 29.2713 164.125 28.6691C164.137 26.2172 164.137 23.7646 164.125 21.3121C164.122 20.7094 163.946 20.155 163.395 19.7979C162.799 19.411 162.161 19.3801 161.531 19.697C160.93 19.9992 160.654 20.5197 160.652 21.1732C160.647 22.443 160.65 23.7127 160.65 24.9824Z" fill="white"/>
<path d="M187.229 23.2617C187.857 22.1174 188.484 20.9731 189.112 19.8288C189.543 19.0429 189.981 18.2592 190.402 17.4685C190.5 17.2853 190.625 17.2281 190.827 17.2299C191.641 17.238 192.456 17.2322 193.27 17.234C193.599 17.2345 193.607 17.2515 193.443 17.5333C192.17 19.7267 190.9 21.9213 189.62 24.1107C189.497 24.3213 189.496 24.4812 189.611 24.696C190.989 27.264 192.356 29.8373 193.727 32.4089C193.906 32.745 193.903 32.7531 193.523 32.7531C192.729 32.7537 191.934 32.745 191.139 32.7584C190.906 32.7625 190.782 32.6796 190.677 32.4818C189.793 30.8112 188.899 29.1453 188.008 27.4776C187.962 27.393 187.914 27.3089 187.826 27.1496C187.59 27.7308 187.135 28.1259 187.153 28.7701C187.187 29.9721 187.156 31.1753 187.167 32.3779C187.17 32.6656 187.082 32.7695 186.776 32.7596C186.101 32.7385 185.425 32.7537 184.75 32.7526C184.363 32.752 184.359 32.7485 184.358 32.3546C184.357 30.6962 184.358 29.0373 184.358 27.379C184.358 24.1492 184.358 20.9189 184.358 17.6891C184.358 17.3853 184.509 17.2332 184.81 17.2328C185.466 17.2328 186.122 17.2474 186.777 17.2264C187.085 17.2164 187.169 17.3226 187.168 17.6092C187.159 19.4035 187.163 21.1978 187.163 22.9921C187.163 23.0779 187.163 23.1636 187.163 23.2488C187.185 23.2529 187.208 23.257 187.23 23.2611L187.229 23.2617Z" fill="white"/>
<path d="M133.915 24.9803C133.915 23.7776 133.914 22.575 133.915 21.3724C133.918 18.7868 135.747 17.0024 138.4 17.003C139.903 17.003 141.184 17.4926 142.121 18.6824C142.664 19.3721 142.922 20.1686 142.95 21.0357C142.959 21.3263 142.942 21.618 142.955 21.9086C142.965 22.1263 142.868 22.2016 142.657 22.2004C141.922 22.1957 141.187 22.1963 140.452 22.1992C140.254 22.1998 140.159 22.1263 140.169 21.9226C140.18 21.7097 140.172 21.4961 140.171 21.2825C140.167 20.2246 139.466 19.4964 138.444 19.4876C137.436 19.4789 136.703 20.2106 136.699 21.2691C136.69 23.752 136.695 26.2348 136.698 28.7177C136.698 28.8426 136.719 28.9686 136.739 29.0929C136.88 29.9647 137.646 30.5633 138.533 30.498C139.466 30.4291 140.14 29.7663 140.169 28.8811C140.178 28.6097 140.18 28.3378 140.169 28.0665C140.16 27.8622 140.254 27.7893 140.451 27.7899C141.196 27.7928 141.941 27.7899 142.686 27.7922C142.822 27.7922 142.945 27.8126 142.95 27.9924C142.97 28.8286 142.978 29.6624 142.624 30.4513C142.07 31.6895 141.109 32.4656 139.782 32.8157C138.705 33.1005 137.635 33.0602 136.598 32.6564C134.919 32.0029 133.934 30.5884 133.918 28.8204C133.907 27.5401 133.915 26.2599 133.915 24.9797V24.9803Z" fill="white"/>
<path d="M170.813 24.9988C170.813 23.8253 170.837 22.6513 170.809 21.4779C170.736 18.4978 173.043 16.9317 175.429 17.0023C177.114 17.0519 178.47 17.6891 179.333 19.1549C179.755 19.872 179.88 20.6621 179.852 21.4825C179.827 22.2708 179.987 22.1944 179.127 22.1985C178.561 22.2014 177.994 22.1909 177.428 22.2026C177.165 22.2078 177.059 22.1279 177.063 21.8531C177.069 21.4399 177.117 21.0233 176.974 20.6137C176.713 19.8679 176.02 19.4501 175.244 19.498C174.351 19.5528 173.756 20.1002 173.637 20.9054C173.607 21.1079 173.593 21.3098 173.593 21.5134C173.594 23.8609 173.593 26.2078 173.595 28.5553C173.595 28.9457 173.633 29.3291 173.838 29.6797C174.216 30.3263 175.015 30.632 175.827 30.4377C176.518 30.272 177.05 29.6167 177.068 28.9013C177.076 28.6201 177.078 28.3388 177.069 28.0576C177.063 27.8708 177.144 27.7915 177.331 27.7921C178.086 27.7938 178.841 27.7921 179.596 27.7944C179.719 27.7944 179.84 27.8113 179.847 27.9753C179.886 28.962 179.861 29.9382 179.34 30.8293C178.544 32.1918 177.295 32.8506 175.735 32.9778C174.66 33.0659 173.634 32.8587 172.718 32.2746C171.444 31.4618 170.847 30.2732 170.819 28.8115C170.795 27.5412 170.814 26.2703 170.813 25V24.9988Z" fill="white"/>
<path d="M150.263 23.7781C150.263 25.8052 150.263 27.8323 150.263 29.8601C150.263 30.2726 150.264 30.2732 150.696 30.2732C151.937 30.2732 153.179 30.2814 154.421 30.2674C154.722 30.2639 154.822 30.3572 154.813 30.6501C154.794 31.2512 154.8 31.8528 154.81 32.4538C154.814 32.6808 154.726 32.7572 154.495 32.7566C152.25 32.7508 150.005 32.7514 147.76 32.7566C147.544 32.7566 147.443 32.6854 147.457 32.4719C147.462 32.4042 147.457 32.3359 147.457 32.2682C147.457 27.4186 147.457 22.5684 147.457 17.7188C147.457 17.3956 147.618 17.2339 147.94 17.2339C148.585 17.2339 149.232 17.2485 149.877 17.2275C150.184 17.2176 150.269 17.3238 150.268 17.6097C150.259 19.666 150.263 21.7223 150.263 23.7787V23.7781Z" fill="white"/>
<path d="M100.447 26.6694C100.447 28.5699 100.448 30.4704 100.447 32.3715C100.447 32.752 100.445 32.7532 100.046 32.7537C99.3709 32.7549 98.6949 32.7426 98.0201 32.7596C97.7397 32.7666 97.6627 32.6633 97.6645 32.4042C97.6741 31.2214 97.6603 30.0381 97.6747 28.8553C97.6782 28.5629 97.5887 28.4661 97.2863 28.4713C96.3824 28.4877 95.4785 28.4871 94.5746 28.4713C94.2798 28.4661 94.1766 28.5472 94.1802 28.8477C94.1963 30.0305 94.179 31.2138 94.1921 32.3966C94.1951 32.6779 94.1038 32.7666 93.8186 32.7596C93.1337 32.7426 92.4476 32.7462 91.7627 32.7584C91.5121 32.7631 91.4077 32.6931 91.4083 32.4316C91.4148 28.64 91.3928 24.8483 91.4226 21.0572C91.4393 18.9734 93.0353 17.3244 95.1807 17.0531C96.5405 16.8809 97.7958 17.1149 98.8888 17.9505C99.8959 18.7202 100.382 19.7594 100.445 20.9965C100.447 21.035 100.447 21.0741 100.447 21.1126C100.447 22.9647 100.447 24.8168 100.447 26.6688L100.447 26.6694ZM97.6681 23.3597C97.6681 23.3597 97.6669 23.3597 97.6657 23.3597C97.6657 22.6239 97.6681 21.8875 97.6645 21.1517C97.6627 20.773 97.5529 20.4258 97.3095 20.1259C96.8519 19.5616 96.0745 19.3486 95.3502 19.5855C94.639 19.8184 94.1939 20.4369 94.1892 21.2433C94.1802 22.7155 94.1915 24.1877 94.1808 25.6599C94.179 25.9132 94.2798 25.9674 94.5137 25.9645C95.4462 25.9546 96.3788 25.9494 97.3113 25.9669C97.6102 25.9727 97.6782 25.8659 97.6729 25.5969C97.6574 24.8512 97.6675 24.1055 97.6675 23.3597H97.6681Z" fill="white"/>
<path d="M65.842 24.9615C65.842 22.5562 65.842 20.151 65.842 17.7463C65.842 17.4032 66.0222 17.2316 66.3826 17.2316C67.7137 17.2316 69.0447 17.2281 70.3758 17.2328C72.8596 17.2416 74.7187 19.0324 74.7348 21.4575C74.7509 23.8137 74.7509 26.1705 74.7348 28.5273C74.7181 30.9542 72.8602 32.7421 70.3752 32.7497C69.0143 32.7537 67.6534 32.7508 66.2925 32.7502C65.993 32.7502 65.8428 32.5979 65.842 32.2933C65.842 29.849 65.842 27.4052 65.842 24.9615ZM68.6474 24.9842C68.6474 26.1763 68.6474 27.3685 68.6474 28.5606C68.6474 29.0356 68.6468 29.5106 68.6486 29.9855C68.6492 30.111 68.6384 30.2645 68.8258 30.2633C69.4105 30.2604 70.0023 30.3386 70.5781 30.2289C71.4539 30.0614 71.9509 29.4329 71.9593 28.4451C71.9778 26.1384 71.9849 23.8312 71.9569 21.5246C71.9426 20.3371 71.2385 19.7139 70.0316 19.7127C69.704 19.7127 69.3765 19.7122 69.0489 19.7127C68.651 19.7139 68.6486 19.7145 68.6486 20.099C68.648 21.7276 68.6486 23.3556 68.6486 24.9842H68.6474Z" fill="white"/>
<path d="M125.72 25.0076C125.72 27.4613 125.72 29.9144 125.72 32.368C125.72 32.7514 125.718 32.7532 125.322 32.7538C124.656 32.7549 123.991 32.7409 123.326 32.7602C123.025 32.7689 122.933 32.675 122.934 32.3809C122.946 30.3835 122.94 28.3856 122.94 26.3876C122.94 26.0031 122.939 26.0025 122.547 26.0019C121.654 26.0019 120.759 26.0112 119.865 25.9961C119.58 25.9914 119.488 26.0777 119.489 26.3584C119.499 28.3465 119.494 30.3345 119.494 32.3225C119.494 32.7532 119.492 32.7532 119.044 32.7538C118.399 32.7538 117.753 32.7543 117.107 32.7538C116.693 32.7538 116.689 32.7514 116.689 32.3517C116.688 30.1501 116.689 27.9491 116.689 25.7475C116.689 23.0516 116.689 20.3558 116.689 17.6594C116.689 17.2334 116.691 17.2328 117.112 17.2322C117.778 17.2316 118.444 17.2468 119.108 17.2252C119.416 17.2153 119.5 17.3233 119.499 17.608C119.49 19.4309 119.494 21.2544 119.494 23.0773C119.494 23.3741 119.648 23.5227 119.956 23.5231C120.84 23.5231 121.725 23.5149 122.608 23.5284C122.874 23.5325 122.946 23.442 122.945 23.1917C122.936 21.3396 122.939 19.4869 122.94 17.6349C122.94 17.2334 122.942 17.2322 123.355 17.2316C124.021 17.2311 124.687 17.2433 125.351 17.2258C125.637 17.2182 125.727 17.3058 125.726 17.5876C125.716 20.0605 125.72 22.5335 125.72 25.0064L125.72 25.0076Z" fill="white"/>
<path d="M79.3687 24.9796C79.3687 22.5364 79.3687 20.0932 79.3687 17.65C79.3687 17.2328 79.3705 17.2316 79.7965 17.2316C82.0809 17.2316 84.3648 17.2363 86.6493 17.2258C86.9453 17.2246 87.0515 17.3011 87.0401 17.6004C87.018 18.1816 87.0174 18.764 87.0401 19.3451C87.0521 19.6497 86.9339 19.7203 86.6434 19.718C85.2729 19.7058 83.9025 19.7203 82.532 19.7069C82.2408 19.704 82.1329 19.7688 82.1382 20.0751C82.1573 21.112 82.1549 22.1501 82.1394 23.187C82.1352 23.463 82.2331 23.5319 82.4998 23.5295C83.6614 23.5184 84.8236 23.533 85.9853 23.519C86.2842 23.5155 86.3874 23.606 86.3779 23.9012C86.3582 24.4917 86.3612 25.084 86.3767 25.6751C86.3832 25.9336 86.2866 26.0083 86.03 26.006C84.8481 25.9961 83.6662 26.0077 82.4849 25.9966C82.2301 25.9943 82.1376 26.0591 82.14 26.3217C82.1525 27.5336 82.1508 28.7456 82.1412 29.9575C82.1394 30.1979 82.2176 30.2756 82.4646 30.2738C83.8547 30.2645 85.2455 30.2691 86.6356 30.2697C87.0312 30.2697 87.0324 30.2721 87.0336 30.6583C87.0348 31.2594 87.0276 31.8604 87.0365 32.4614C87.0395 32.6709 86.9679 32.7526 86.7454 32.752C84.3815 32.7467 82.0183 32.7456 79.6545 32.7526C79.3669 32.7537 79.3669 32.5933 79.3675 32.3955C79.3693 30.8346 79.3687 29.2737 79.3687 27.7128C79.3687 26.8013 79.3687 25.8899 79.3687 24.9784V24.9796Z" fill="white"/>
<path d="M106.958 26.1834C106.958 24.1667 106.958 22.1501 106.958 20.1341C106.958 19.8532 106.81 19.7128 106.514 19.7128C105.829 19.7128 105.143 19.7046 104.458 19.7168C104.204 19.7215 104.102 19.6416 104.107 19.3854C104.119 18.7651 104.115 18.1443 104.109 17.524C104.107 17.3198 104.177 17.2287 104.402 17.2293C107.034 17.2346 109.666 17.234 112.297 17.2293C112.505 17.2293 112.582 17.3093 112.581 17.5024C112.578 18.1425 112.576 18.782 112.583 19.4222C112.586 19.6532 112.479 19.7192 112.256 19.7163C111.541 19.7069 110.825 19.7279 110.111 19.7058C109.799 19.6964 109.731 19.8038 109.732 20.0891C109.74 24.151 109.738 28.2134 109.738 32.2753C109.738 32.5915 109.575 32.7497 109.248 32.7497C108.602 32.7497 107.957 32.7392 107.311 32.7549C107.039 32.7613 106.953 32.6744 106.954 32.4077C106.963 30.3333 106.959 28.2583 106.959 26.1839L106.958 26.1834Z" fill="white"/>
</g>
<defs>
<linearGradient id="paint0_linear_9404_44026" x1="0" y1="2.5" x2="48" y2="2.5" gradientUnits="userSpaceOnUse">
<stop stop-color="#2988AA"/>
<stop offset="1" stop-color="#29B48A"/>
</linearGradient>
<linearGradient id="paint1_linear_9404_44026" x1="0" y1="52.5" x2="48" y2="52.5" gradientUnits="userSpaceOnUse">
<stop stop-color="#29B48A"/>
<stop offset="1" stop-color="#2988AA"/>
</linearGradient>
<clipPath id="clip0_9404_44026">
<rect width="128" height="16" fill="white" transform="translate(65 17)"/>
</clipPath>
</defs>
</svg>
